<svg width="102" height="125" viewBox="0 0 102 125" fill="none" xmlns="http://www.w3.org/2000/svg">
<path d="M62.4394 57.7955C62.4394 74.7955 48.715 88.6402 31.7197 88.6402C14.7245 88.6402 1 74.8599 1 57.7955C1 30.3636 31.7197 1 31.7197 1C31.7197 1 62.4394 28.1098 62.4394 57.7955Z" stroke="#00A0DF" stroke-miterlimit="10" stroke-linecap="round"/>
<path d="M53.7182 49.1023C53.7182 49.1023 59.1054 69.5152 40.6992 79.4318" stroke="#00A0DF" stroke-miterlimit="10" stroke-linecap="round"/>
<path d="M88.0404 108.72C88.0404 117.348 81.114 124.303 72.5202 124.303C63.9264 124.303 57 117.284 57 108.72C57 94.875 72.5202 80 72.5202 80C72.5202 80 88.0404 93.7159 88.0404 108.72Z" stroke="#00A0DF" stroke-miterlimit="10" stroke-linecap="round"/>
<path d="M83.6158 104.277C83.6158 104.277 86.3094 114.58 77.0742 119.602" stroke="#00A0DF" stroke-miterlimit="10" stroke-linecap="round"/>
<path d="M100.601 52.7651C100.601 59.2689 95.342 64.6136 88.8005 64.6136C82.2589 64.6136 77 59.3333 77 52.7651C77 42.2689 88.8005 31 88.8005 31C88.8005 31 100.601 41.4318 100.601 52.7651Z" stroke="#00A0DF" stroke-miterlimit="10" stroke-linecap="round"/>
<path d="M97.268 49.4167C97.268 49.4167 99.3203 57.2728 92.2656 61.0721" stroke="#00A0DF" stroke-miterlimit="10" stroke-linecap="round"/>
</svg>
