<svg width="144" height="124" viewBox="0 0 144 124" fill="none" xmlns="http://www.w3.org/2000/svg">
<path d="M43.9482 101.181C40.5967 106.03 38.726 109.705 38.1025 112.442C37.7127 114.319 37.7127 115.023 37.8686 116.04C37.9466 116.978 38.1025 118.151 37.8686 120.106C37.7127 121.514 36.6215 122.531 35.2185 122.531H4.0411C3.33961 122.531 2.63812 122.218 2.17046 121.749C1.7028 121.28 1.39103 120.576 1.39103 119.872C1.46897 106.968 1.39103 94.6898 1.39103 82.8809C1.31308 63.3296 1.23513 44.8732 1.7028 24.3834C1.7028 23.7578 1.93662 23.1321 2.40428 22.6629C2.87195 22.1155 3.41755 21.568 12.9267 18.2052C18.9283 16.0937 26.255 13.7475 33.5038 11.5578C44.9615 8.11675 65.5386 2.25137 75.0477 1.78214C75.1257 1.78214 75.5154 1.70393 75.8272 1.70393C76.6845 1.62573 78.0875 1.39111 79.4126 1.39111C84.401 1.39111 85.1804 4.2065 85.2583 5.37957C85.4142 7.41291 83.8554 8.50778 80.5038 10.4629C78.3993 11.636 75.5154 13.2001 71.6182 15.2334C64.6033 18.8309 55.7177 23.1321 48.5469 26.5732C43.7923 28.8411 38.9598 31.1873 36.8554 32.2821C36.4657 38.8514 36.6215 45.8116 36.7774 52.5373C36.8554 55.8219 36.9333 59.1847 36.9333 62.5475C40.7525 60.5924 46.3645 57.6988 52.522 54.5706C64.8371 48.3142 80.192 40.4937 84.4789 37.9129C90.1688 34.5501 98.9764 29.8578 110.2 27.5116C112.383 27.0424 118.073 26.0257 124.152 26.0257C133.505 26.0257 139.117 28.5283 140.832 33.4552C141.923 36.1924 141.612 39.5552 141.3 42.8398C141.144 44.3257 141.066 45.8116 141.066 46.9847C141.066 48.0014 140.52 48.8616 139.663 49.3309C139.273 50.1911 138.338 51.0514 136.545 51.2078C135.922 51.286 135.142 51.286 134.129 51.286C133.038 51.286 131.869 51.286 130.699 51.2078C129.608 51.2078 128.439 51.1296 127.426 51.1296C126.724 51.1296 126.257 51.1296 125.789 51.1296C124.464 51.2078 123.373 50.3475 123.061 49.0962C122.749 47.9232 122.204 46.5155 121.736 45.3424C121.58 44.9514 121.424 44.5603 121.346 44.2475C121.268 44.0911 121.268 43.9347 121.19 43.7783C111.915 44.4821 104.588 49.4873 97.8852 54.4924C83.1539 65.6757 46.2865 97.818 43.9482 101.181Z" stroke="#00A0DF" stroke-miterlimit="10" stroke-linecap="round"/>
<path d="M139.738 49.3308H123.37" stroke="#00A0DF" stroke-miterlimit="10" stroke-linecap="round"/>
<path d="M36.8555 32.282H1.54701" stroke="#00A0DF" stroke-miterlimit="10" stroke-linecap="round"/>
<path d="M143 80.4443C143 85.9558 138.543 90.485 133 90.485C127.457 90.485 123 86.0103 123 80.4443C123 71.5496 133 62 133 62C133 62 143 70.8402 143 80.4443Z" stroke="#00A0DF" stroke-miterlimit="10" stroke-linecap="round"/>
<path d="M139.177 76.6067C139.177 76.6067 140.916 83.2641 134.938 86.4837" stroke="#00A0DF" stroke-miterlimit="10" stroke-linecap="round"/>
<path d="M123 108.444C123 113.956 118.543 118.485 113 118.485C107.457 118.485 103 114.01 103 108.444C103 99.5496 113 90 113 90C113 90 123 98.8402 123 108.444Z" stroke="#00A0DF" stroke-miterlimit="10" stroke-linecap="round"/>
<path d="M119.177 104.607C119.177 104.607 120.916 111.264 114.938 114.484" stroke="#00A0DF" stroke-miterlimit="10" stroke-linecap="round"/>
</svg>
