<svg width="60" height="83" viewBox="0 0 60 83" fill="none" xmlns="http://www.w3.org/2000/svg">
<path d="M31.5 42.1C31.6 42.2 31.8 42.3 32 42.3C32.4 42.3 32.8 42 32.8 41.5V32.8C32.8 25.7 29.2 22.6 26.6 20.3C24.9 18.8 23.9 17.8 23.9 16.5V11.8H8.8V16.5C8.8 17.8 7.8 18.7 6.1 20.3C3.6 22.7 0 25.8001 0 32.9001V75.6C0 77.5 0.8 79.4 2.1 80.7C4.6 83.2 8.6 83.5 11.4 81.5L11.8 81.2L12.2 81.5C14.7 83.3 18.1 83.3 20.6 81.5L21 81.2L21.4 81.5C24.3 83.6 28.2 83.2 30.7 80.7C32.1 79.3 32.8 77.5 32.8 75.6V54.2001C32.8 53.8 32.5 53.4001 32 53.4001C31.6 53.4001 31.2 53.7001 31.2 54.2001V58.8H24C23.8 58.8 23.6 58.9001 23.5 59C21.5 60.7001 19 61.7001 16.4 61.7001C13.8 61.7001 11.2 60.7001 9.3 59C9.2 58.9001 9 58.8 8.8 58.8H1.5V38.4001H8.7C8.9 38.4001 9.1 38.3001 9.2 38.2001C11.2 36.5 13.7 35.5 16.3 35.5C18.9 35.5 21.5 36.5 23.4 38.2001C23.5 38.3001 23.7 38.4001 23.9 38.4001H31.1V41.5C31.3 41.7001 31.4 41.9 31.5 42.1ZM1.5 60.3H8.4L8.6 60.4001C10.8 62.2001 13.5 63.1 16.4 63.1C19.3 63.1 22 62.1 24.2 60.3L24.4 60.2001H31.3V75.4001C31.3 76.9001 30.7 78.4 29.6 79.4C27.8 81.2001 24.9 81.6001 22.6 80.3L22 80L22.4 79.5C23.2 78.3 23.6 76.9 23.6 75.5C23.6 75.1 23.3 74.7 22.8 74.7C22.6 74.7 22.4 74.8001 22.3 74.9001C22.2 75 22.1 75.2001 22.1 75.4001C22.1 76.9001 21.5 78.4 20.4 79.4C18.2 81.6 14.6 81.6 12.3 79.4C11.2 78.3 10.6 76.9001 10.6 75.4001C10.6 75.2001 10.5 75 10.4 74.9001C10.3 74.8001 10.1 74.7 9.9 74.7C9.5 74.7 9.1 75 9.1 75.5C9.1 76.9 9.5 78.3 10.3 79.5L10.7 80L10.1 80.3C7.9 81.7001 5 81.3 3.1 79.5C2 78.4 1.4 77 1.4 75.5V60.3H1.5ZM31.3 36.9001H24.4L24.2 36.8C22 35 19.2 34 16.4 34C13.6 34 10.8 35 8.6 36.7001L8.4 36.8H1.5V32.8C1.5 26.6 4.4 23.9 7 21.6L7.2 21.5C8.9 20 10.4 18.6 10.4 16.6V13.4H22.4V16.6C22.4 18.7 23.9 20 25.6 21.5C28.3 23.8 31.3 26.5001 31.3 32.9001V36.9001Z" fill="#00A0DF"/>
<path d="M23.5992 44.2C23.3992 44.1 23.1992 44 22.9992 44H9.99922C9.59922 44 9.19922 44.3 9.19922 44.8C9.19922 45 9.29922 45.2 9.39922 45.3C9.49922 45.4 9.69922 45.5 9.89922 45.5H22.8992C23.2992 45.5 23.6992 45.2 23.6992 44.7C23.7992 44.6 23.6992 44.4 23.5992 44.2Z" fill="#00A0DF"/>
<path d="M22.9992 50.7H9.99922C9.59922 50.7 9.19922 51 9.19922 51.5C9.19922 51.7 9.29922 51.9 9.39922 52C9.49922 52.1 9.69922 52.2 9.89922 52.2H22.8992C23.2992 52.2 23.6992 51.9 23.6992 51.4C23.7992 51.1 23.3992 50.7 22.9992 50.7Z" fill="#00A0DF"/>
<path d="M32.4992 47.2C32.3992 47.1 32.1992 47 31.9992 47C31.5992 47 31.1992 47.3 31.1992 47.8C31.1992 48 31.2992 48.2 31.3992 48.4C31.4992 48.5 31.6992 48.6 31.8992 48.6C32.0992 48.6 32.2992 48.5 32.3992 48.4C32.4992 48.3 32.5992 48.1 32.5992 47.9C32.6992 47.6 32.6992 47.4 32.4992 47.2Z" fill="#00A0DF"/>
<path d="M28.3 3.0999C28.2 2.9999 28 2.8999 27.8 2.8999C27.4 2.8999 27 3.1999 27 3.6999C27 3.8999 27.1 4.0999 27.2 4.2999C27.3 4.3999 27.5 4.4999 27.7 4.4999C27.9 4.4999 28.1 4.3999 28.2 4.2999C28.3 4.1999 28.4 3.9999 28.4 3.7999C28.5 3.4999 28.5 3.2999 28.3 3.0999Z" fill="#00A0DF"/>
<path d="M23.7984 0.2C23.5984 0.1 23.3984 0 23.1984 0C22.7984 0 22.3984 0.3 22.3984 0.8C22.3984 1 22.4984 1.2 22.5984 1.4C22.6984 1.5 22.8984 1.6 23.0984 1.6C23.2984 1.6 23.4984 1.5 23.5984 1.4C23.8984 1.2 23.9984 1 23.9984 0.8C23.9984 0.6 23.8984 0.4 23.7984 0.2Z" fill="#00A0DF"/>
<path d="M19.6008 3.89995C19.5008 3.79995 19.3008 3.69995 19.1008 3.69995C18.7008 3.69995 18.3008 3.99995 18.3008 4.49995C18.3008 4.69995 18.4008 4.89995 18.5008 5.09995C18.6008 5.19995 18.8008 5.29995 19.0008 5.29995C19.2008 5.29995 19.4008 5.19995 19.5008 5.09995C19.6008 4.99995 19.7008 4.79995 19.7008 4.59995C19.8008 4.29995 19.8008 4.09995 19.6008 3.89995Z" fill="#00A0DF"/>
<path d="M20.4016 15.3001C20.3016 15.2001 20.1016 15.1001 19.9016 15.1001C19.5016 15.1001 19.1016 15.4001 19.1016 15.9001C19.1016 16.1001 19.2016 16.3001 19.3016 16.5001C19.4016 16.6001 19.6016 16.7001 19.8016 16.7001C20.0016 16.7001 20.2016 16.6001 20.3016 16.5001C20.4016 16.4001 20.5016 16.2001 20.5016 16.0001C20.6016 15.6001 20.5016 15.4001 20.4016 15.3001Z" fill="#00A0DF"/>
<path d="M16.4992 18.4C16.3992 18.3 16.1992 18.2 15.9992 18.2C15.5992 18.2 15.1992 18.5 15.1992 19C15.1992 19.2 15.2992 19.4 15.3992 19.6C15.4992 19.7 15.6992 19.7999 15.8992 19.7999C16.0992 19.7999 16.2992 19.7 16.3992 19.6C16.4992 19.5 16.5992 19.3 16.5992 19.1C16.6992 18.7 16.5992 18.5 16.4992 18.4Z" fill="#00A0DF"/>
<path d="M21.9016 24.5999C21.8016 24.4999 21.6016 24.3999 21.4016 24.3999C21.0016 24.3999 20.6016 24.6999 20.6016 25.1999C20.6016 25.3999 20.7016 25.5999 20.8016 25.7999C20.9016 25.8999 21.1016 25.9999 21.3016 25.9999C21.5016 25.9999 21.7016 25.8999 21.8016 25.7999C21.9016 25.6999 22.0016 25.4999 22.0016 25.2999C22.1016 24.8999 22.1016 24.6999 21.9016 24.5999Z" fill="#00A0DF"/>
<path d="M34.6984 8.8001C34.5984 8.7001 34.3984 8.6001 34.1984 8.6001C33.7984 8.6001 33.3984 8.9001 33.3984 9.4001C33.3984 9.6001 33.4984 9.8001 33.5984 10.0001C33.6984 10.1001 33.8984 10.2001 34.0984 10.2001C34.2984 10.2001 34.4984 10.1001 34.5984 10.0001C34.6984 9.9001 34.7984 9.7001 34.7984 9.5001C34.8984 9.2001 34.8984 9.0001 34.6984 8.8001Z" fill="#00A0DF"/>
<path d="M39.6008 9.5999C39.5008 9.4999 39.3008 9.3999 39.1008 9.3999C38.7008 9.3999 38.3008 9.6999 38.3008 10.1999C38.3008 10.3999 38.4008 10.5999 38.5008 10.7999C38.6008 10.8999 38.8008 10.9999 39.0008 10.9999C39.2008 10.9999 39.4008 10.8999 39.5008 10.7999C39.6008 10.6999 39.7008 10.4999 39.7008 10.2999C39.8008 9.9999 39.7008 9.7999 39.6008 9.5999Z" fill="#00A0DF"/>
<path d="M24.0016 8.3999H8.80156C8.40156 8.3999 8.10156 8.0999 8.10156 7.6999V7.5999C8.10156 7.1999 8.40156 6.8999 8.80156 6.8999H24.0016C24.4016 6.8999 24.7016 7.1999 24.7016 7.5999V7.6999C24.8016 8.0999 24.4016 8.3999 24.0016 8.3999Z" fill="#00A0DF"/>
<path d="M10.3984 7.6001H8.89844V12.6001H10.3984V7.6001Z" fill="#00A0DF"/>
<path d="M24 7.6001H22.5V12.6001H24V7.6001Z" fill="#00A0DF"/>
<path d="M37.1011 2.40003L29.1011 11.3C28.8011 11.6 28.3011 11.6 28.0011 11.4C27.7011 11.1 27.7011 10.6 27.9011 10.3L35.9011 1.40003C36.2011 1.10003 36.7011 1.10003 37.0011 1.30003C37.4011 1.60003 37.4011 2.10003 37.1011 2.40003Z" fill="#00A0DF"/>
<path d="M54.3984 31C53.0984 31 51.9984 30.5 50.9984 29.7001L29.3984 10.2L30.3984 9.10005L51.9984 28.6C52.6984 29.2001 53.5984 29.6 54.4984 29.5C55.3984 29.5 56.2984 29 56.8984 28.3C57.4984 27.6 57.8984 26.7 57.7984 25.8C57.7984 24.9 57.2984 24 56.5984 23.4L35.1984 3.90005L36.1984 2.80005L57.7984 22.3C58.7984 23.2 59.3984 24.4 59.4984 25.8C59.5984 27.2 59.0984 28.4 58.1984 29.4C57.2984 30.4 56.0984 31 54.6984 31.1C54.5984 31 54.4984 31 54.3984 31Z" fill="#00A0DF"/>
<path d="M42.0016 20.2001L40.6016 19.6001C40.6016 19.5001 41.8016 16.9001 46.1016 17.2001C48.8016 17.4001 49.5016 16.1001 49.6016 16.1001L51.0016 16.8001C51.0016 16.9001 49.8016 19.0001 46.1016 18.8001C42.9016 18.5001 42.0016 20.2001 42.0016 20.2001Z" fill="#00A0DF"/>
</svg>
