<svg width="51" height="78" viewBox="0 0 51 78" fill="none" xmlns="http://www.w3.org/2000/svg">
<g clip-path="url(#clip0)">
<path d="M15.7881 55.5073H1.24401C0.861273 55.5073 0.574219 55.2177 0.574219 54.8316V54.7351C0.574219 54.3489 0.861273 54.0593 1.24401 54.0593H15.7881C16.1708 54.0593 16.4579 54.3489 16.4579 54.7351V54.8316C16.4579 55.2177 16.1708 55.5073 15.7881 55.5073Z" fill="#00A0DF"/>
<path d="M49.7569 37.938H35.2128C34.83 37.938 34.543 37.6484 34.543 37.2623V37.1657C34.543 36.7796 34.83 36.49 35.2128 36.49H49.7569C50.1396 36.49 50.4266 36.7796 50.4266 37.1657V37.2623C50.4266 37.6484 50.1396 37.938 49.7569 37.938Z" fill="#00A0DF"/>
<path d="M30.1407 48.75C30.2364 48.8465 30.4278 48.9431 30.6191 48.9431C31.0019 48.9431 31.3846 48.6535 31.3846 48.1708V29.7327C31.3846 22.8787 27.94 19.8861 25.4522 17.6658C23.8255 16.2178 22.8687 15.2525 22.8687 13.9975V10.9084H23.6341C23.8255 10.9084 24.0169 10.8119 24.1126 10.7153C24.2083 10.6188 24.3039 10.4257 24.3039 10.2327V4.34406C24.3039 3.18564 23.8255 2.12376 23.06 1.35149C22.3902 0.482673 21.242 0 20.0938 0H11.2908C10.1426 0 9.09006 0.482673 8.32458 1.25495C7.5591 2.02723 7.08068 3.18564 7.08068 4.24752V10.1361C7.08068 10.3292 7.17636 10.5223 7.27205 10.6188C7.36773 10.7153 7.5591 10.8119 7.75047 10.8119H8.51595V13.901C8.51595 15.1559 7.5591 16.0248 5.93246 17.5693C3.44465 19.8861 0 22.9752 0 29.7327V70.953C0 72.7871 0.765478 74.6213 2.00938 75.8762C4.4015 78.2896 8.22889 78.5792 10.9081 76.6485L11.2908 76.3589L11.6735 76.6485C14.0657 78.3861 17.319 78.3861 19.7111 76.6485L20.0938 76.3589L20.4765 76.6485C23.2514 78.6757 26.9831 78.2896 29.3752 75.8762C30.7148 74.5247 31.3846 72.7871 31.3846 70.953V60.4307C31.3846 60.0446 31.0976 59.6584 30.6191 59.6584C30.2364 59.6584 29.8537 59.948 29.8537 60.4307V70.953C29.8537 72.401 29.2796 73.849 28.227 74.8144C26.5047 76.552 23.7298 76.9381 21.5291 75.6832L20.955 75.3936L21.3377 74.9109C22.1032 73.7525 22.4859 72.401 22.4859 71.0495C22.4859 70.6634 22.1989 70.2772 21.7205 70.2772C21.5291 70.2772 21.3377 70.3738 21.242 70.4703C21.1463 70.5668 21.0507 70.7599 21.0507 70.953C21.0507 72.401 20.4765 73.849 19.424 74.8144C17.3189 76.9381 13.8743 76.9381 11.6735 74.8144C10.621 73.7525 10.0469 72.401 10.0469 70.953C10.0469 70.7599 9.95122 70.5668 9.85554 70.4703C9.75985 70.3738 9.56848 70.2772 9.37711 70.2772C8.99437 70.2772 8.61163 70.5668 8.61163 71.0495C8.61163 72.401 8.99437 73.7525 9.75985 74.9109L10.1426 75.3936L9.56848 75.6832C7.46342 77.0347 4.68856 76.6485 2.87054 74.9109C1.81801 73.849 1.2439 72.4975 1.2439 71.0495V29.8292C1.2439 23.8441 4.01876 21.2376 6.50657 19.0173L6.69794 18.9208C8.32458 17.4728 9.75985 16.1213 9.75985 14.1906V11.1015H21.242V14.1906C21.242 16.2178 22.6773 17.4728 24.3039 18.9208C26.8874 21.1411 29.758 23.7475 29.758 29.9257V48.4604C29.9493 48.3639 30.045 48.5569 30.1407 48.75ZM8.51595 9.4604V4.24752C8.51595 3.47525 8.803 2.7995 9.28143 2.2203C9.85554 1.64109 10.5253 1.44802 11.2908 1.44802H20.0938C20.8593 1.44802 21.5291 1.73762 22.1032 2.2203C22.5816 2.70297 22.8687 3.47525 22.8687 4.24752V9.4604H8.51595Z" fill="#00A0DF"/>
<path d="M31.0994 53.7697C31.0037 53.6732 30.8123 53.5767 30.6209 53.5767C30.2382 53.5767 29.8555 53.8663 29.8555 54.3489C29.8555 54.542 29.9512 54.7351 30.0468 54.9281C30.1425 55.0247 30.3339 55.1212 30.5253 55.1212C30.7166 55.1212 30.908 55.0247 31.0037 54.9281C31.0994 54.8316 31.1951 54.6385 31.1951 54.4455C31.2907 54.0593 31.2907 53.8663 31.0994 53.7697Z" fill="#00A0DF"/>
<path d="M20.3807 42.6682C19.998 42.6682 19.6152 43.0544 19.6152 43.4405L19.5195 66.2227C19.5195 66.6088 19.8066 66.995 20.285 66.995C20.6678 66.995 21.0505 66.7053 21.0505 66.2227L21.1462 43.4405C21.0505 42.9578 20.7634 42.6682 20.3807 42.6682Z" fill="#00A0DF"/>
<path d="M24.6865 18.3416C22.2944 20.5618 19.5195 23.5544 19.5195 29.7326L19.6152 31.1807C19.6152 31.5668 19.998 31.9529 20.3807 31.9529C20.5721 31.9529 20.7634 31.8564 20.8591 31.7599C20.9548 31.6633 21.0505 31.4703 21.0505 31.2772V29.8292C21.0505 24.3267 23.3469 21.6237 25.739 19.5C25.3563 19.0173 25.0693 18.7277 24.6865 18.3416Z" fill="#00A0DF"/>
<path d="M50.9992 29.7327C50.9992 22.8787 47.5546 19.8861 45.0668 17.6658C43.4401 16.2178 42.4833 15.2525 42.4833 13.9975V10.9084H43.2487C43.4401 10.9084 43.6315 10.8119 43.7272 10.7153C43.8229 10.6188 43.9185 10.4257 43.9185 10.2327V4.34406C43.9185 2.99257 43.3444 1.73762 42.2919 0.965347C41.5264 0.289604 40.4739 0 39.517 0H30.9054C29.9486 0 28.896 0.289604 28.1305 0.868812C27.078 1.73762 26.5039 2.89604 26.5039 4.24752V10.1361C26.5039 10.3292 26.5996 10.5223 26.6953 10.6188C26.791 10.7153 26.9823 10.8119 27.1737 10.8119H27.9392V13.901C27.9392 14.6733 27.6521 15.2525 27.078 15.9282C26.791 16.2178 26.791 16.7005 27.078 16.9901C27.3651 17.2797 27.9392 17.2797 28.2262 16.9901C28.9917 16.1213 29.5658 15.1559 29.5658 13.9975V10.9084H41.048V13.9975C41.048 15.9282 42.4833 17.2797 44.1099 18.7277L44.3013 18.8243C46.7891 21.0446 49.5639 23.651 49.5639 29.6361V70.8564C49.5639 72.3045 48.9898 73.7525 47.9373 74.7178C46.1193 76.552 43.4401 76.8416 41.2394 75.4901L40.6653 75.2005L41.048 74.7178C41.8135 73.5594 42.1962 72.2079 42.1962 70.8564C42.1962 70.4703 41.8135 70.0842 41.4307 70.0842C41.2394 70.0842 41.048 70.1807 40.9523 70.2772C40.8566 70.3738 40.7609 70.5668 40.7609 70.7599C40.7609 71.7253 40.5696 72.7871 40.0912 73.5594C38.1775 76.3589 35.1155 77.2277 32.7234 75.5866C32.4364 75.3936 31.9579 75.4901 31.7666 75.7797C31.4795 76.1658 31.6709 76.6485 32.0536 76.8416C34.3501 78.0965 37.2206 78 39.4214 76.3589L39.8041 76.0693L40.1868 76.3589C42.866 78.2896 46.502 78.0965 48.8941 75.7797C50.1381 74.6213 51.0949 72.1114 51.0949 70.3738L50.9992 29.7327ZM28.0349 9.4604V4.24752C28.0349 3.47525 28.3219 2.7995 28.8003 2.2203C29.2788 1.73762 30.0442 1.44802 30.8097 1.44802H39.6127C40.3782 1.44802 41.048 1.73762 41.6221 2.2203C42.1962 2.7995 42.3876 3.47525 42.3876 4.24752V9.4604H28.0349Z" fill="#00A0DF"/>
<path d="M19.7109 37.2624C19.7109 37.4554 19.8066 37.6485 19.9023 37.745C19.998 37.8416 20.1894 37.9381 20.3807 37.9381C20.5721 37.9381 20.7635 37.8416 20.8592 37.745C20.9548 37.6485 21.0505 37.4554 21.0505 37.1658C21.0505 36.7797 20.6678 36.3936 20.285 36.3936C20.0937 36.3936 19.9023 36.4901 19.8066 36.5866C19.8066 36.8762 19.7109 37.0693 19.7109 37.2624Z" fill="#00A0DF"/>
</g>
<defs>
<clipPath id="clip0">
<rect width="51" height="78" fill="white"/>
</clipPath>
</defs>
</svg>
