<svg width="48" height="84" viewBox="0 0 48 84" fill="none" xmlns="http://www.w3.org/2000/svg">
<g clip-path="url(#clip0)">
<path d="M31.5 48C31.6 48.1 31.8 48.2 32 48.2C32.4 48.2 32.8 47.9 32.8 47.4V38.7C32.8 31.6 29.2 29.5 26.6 27.2C24.9 25.7 23.9 25.7 23.9 24.4V19.7H8.8V24.4C8.8 25.7 7.8 25.6 6.1 27.2C3.6 29.6 0 31.7999 0 38.7999V76.5C0 78.4 0.8 80.2999 2.1 81.5999C4.6 84.0999 8.6 84.3999 11.4 82.4L11.8 82.0999L12.2 82.4C14.7 84.2 18.1 84.2 20.6 82.4L21 82.0999L21.4 82.4C24.3 84.5 28.2 84.0999 30.7 81.5999C32.1 80.1999 32.8 78.4 32.8 76.5V58.0999C32.8 57.6999 32.5 57.2999 32 57.2999C31.6 57.2999 31.2 57.5999 31.2 58.0999V62.7H24C23.8 62.7 23.6 62.8 23.5 62.9C21.5 64.6 19 65.5999 16.4 65.5999C13.8 65.5999 11.2 64.6 9.3 62.9C9.2 62.8 9 62.7 8.8 62.7H1.5V44.2999H8.7C8.9 44.2999 9.1 44.1999 9.2 44.0999C11.2 42.3999 13.7 41.4 16.3 41.4C18.9 41.4 21.5 42.3999 23.4 44.0999C23.5 44.1999 23.7 44.2999 23.9 44.2999H31.1V47.4C31.3 47.7 31.4 47.9 31.5 48ZM1.5 64.1999H8.4L8.6 64.3C10.8 66.1 13.5 67 16.4 67C19.3 67 22 65.9999 24.2 64.1999L24.4 64.0999H31.3V76.3C31.3 77.8 30.7 79.3 29.6 80.3C27.8 82.1 24.9 82.4999 22.6 81.1999L22.1 81L22.5 80.5C23.3 79.2999 23.7 77.9 23.7 76.5C23.7 76.0999 23.4 75.6999 22.9 75.6999C22.7 75.6999 22.5 75.8 22.4 75.9C22.3 76 22.2 76.2 22.2 76.4C22.2 77.9 21.6 79.4 20.5 80.4C18.3 82.6 14.7 82.6 12.4 80.4C11.3 79.3 10.7 77.9 10.7 76.4C10.7 76.2 10.6 76 10.5 75.9C10.4 75.8 10.2 75.6999 10 75.6999C9.6 75.6999 9.2 76 9.2 76.5C9.2 77.9 9.6 79.2999 10.4 80.5L10.8 81L10.2 81.3C8 82.7 5.1 82.2999 3.2 80.5C2.1 79.4 1.5 78 1.5 76.5V64.1999ZM31.3 42.7999H24.4L24.2 42.7C22 40.9 19.2 40 16.4 40C13.6 40 10.8 41 8.6 42.7L8.4 42.7999H1.5V38.7999C1.5 32.5999 4.4 30.9 7 28.6L7.2 28.5C8.9 27 10.4 26.6 10.4 24.6V21.4H22.4V24.6C22.4 26.7 23.9 27 25.6 28.5C28.3 30.8 31.3 32.5 31.3 38.9V42.7999Z" fill="#00A0DF"/>
<path d="M23.6008 50.7C23.5008 50.6 23.3008 50.5 23.1008 50.5H10.1008C9.70078 50.5 9.30078 50.8 9.30078 51.3C9.30078 51.5 9.40078 51.7 9.50078 51.8C9.60078 51.9 9.90078 52 10.1008 52H23.1008C23.5008 52 23.9008 51.7 23.9008 51.2C23.8008 51.1 23.7008 50.9 23.6008 50.7Z" fill="#00A0DF"/>
<path d="M22.9992 57.2H9.99922C9.59922 57.2 9.19922 57.5 9.19922 58C9.19922 58.2 9.29922 58.4 9.39922 58.5C9.49922 58.6 9.69922 58.7 9.89922 58.7H22.8992C23.2992 58.7 23.6992 58.4 23.6992 57.9C23.7992 57.6 23.3992 57.2 22.9992 57.2Z" fill="#00A0DF"/>
<path d="M32.4992 52.2C32.3992 52.1 32.1992 52 31.9992 52C31.5992 52 31.1992 52.3 31.1992 52.8C31.1992 53 31.2992 53.2 31.3992 53.4C31.4992 53.5 31.6992 53.6 31.8992 53.6C32.0992 53.6 32.2992 53.5 32.3992 53.4C32.4992 53.3 32.5992 53.1 32.5992 52.9C32.6992 52.5 32.6992 52.3 32.4992 52.2Z" fill="#00A0DF"/>
<path d="M24.0016 17.1001H8.80156C8.40156 17.1001 8.10156 16.8001 8.10156 16.4001V16.3001C8.10156 15.9001 8.40156 15.6001 8.80156 15.6001H24.0016C24.4016 15.6001 24.7016 15.9001 24.7016 16.3001V16.4001C24.8016 16.8001 24.4016 17.1001 24.0016 17.1001Z" fill="#00A0DF"/>
<path d="M47.7008 2.49997V11.6C47.7008 12 47.4008 12.3 47.0008 12.3C46.6008 12.3 46.3008 12 46.3008 11.6V2.49997C46.3008 2.09997 46.6008 1.79997 47.0008 1.79997C47.3008 1.69997 47.7008 2.09997 47.7008 2.49997Z" fill="#00A0DF"/>
<path d="M31.5984 0H40.6984C41.0984 0 41.3984 0.3 41.3984 0.7C41.3984 1.1 41.0984 1.4 40.6984 1.4H31.5984C31.1984 1.4 30.8984 1.1 30.8984 0.7C30.8984 0.3 31.1984 0 31.5984 0Z" fill="#00A0DF"/>
<path d="M33.7984 0.89989V3.79989C33.7984 3.99989 33.5984 4.19989 33.3984 4.19989H32.7984C32.5984 4.19989 32.3984 3.99989 32.3984 3.79989V0.89989C32.3984 0.69989 32.5984 0.49989 32.7984 0.49989H33.3984C33.5984 0.39989 33.7984 0.59989 33.7984 0.89989Z" fill="#00A0DF"/>
<path d="M40.0016 0.89989V3.79989C40.0016 3.99989 39.8016 4.19989 39.6016 4.19989H39.0016C38.8016 4.19989 38.6016 3.99989 38.6016 3.79989V0.89989C38.6016 0.69989 38.8016 0.49989 39.0016 0.49989H39.6016C39.8016 0.39989 40.0016 0.59989 40.0016 0.89989Z" fill="#00A0DF"/>
<path d="M10.3984 16.3H8.89844V21.3H10.3984V16.3Z" fill="#00A0DF"/>
<path d="M24 16.3H22.5V21.3H24V16.3Z" fill="#00A0DF"/>
<path d="M16.9992 33.8001C16.8992 33.7001 16.6992 33.6001 16.4992 33.6001C16.0992 33.6001 15.6992 33.9001 15.6992 34.4001C15.6992 34.6001 15.7992 34.8001 15.8992 35.0001C15.9992 35.1001 16.1992 35.2001 16.3992 35.2001C16.5992 35.2001 16.7992 35.1001 16.8992 35.0001C16.9992 34.9001 17.0992 34.7001 17.0992 34.5001C17.1992 34.1001 17.0992 33.9001 16.9992 33.8001Z" fill="#00A0DF"/>
<path d="M14.3 29.4C14.2 29.3 14 29.2 13.8 29.2C13.4 29.2 13 29.5 13 30C13 30.2 13.1 30.4 13.2 30.6C13.3 30.7 13.5 30.7999 13.7 30.7999C13.9 30.7999 14.1 30.7 14.2 30.6C14.3 30.5 14.4 30.3 14.4 30.1C14.6 29.8 14.5 29.6 14.3 29.4Z" fill="#00A0DF"/>
<path d="M18.9984 13.8999H14.0984C12.8984 13.8999 11.8984 12.8999 11.8984 11.6999V11.4999L13.0984 5.6999C13.0984 4.3999 14.1984 3.3999 15.4984 3.3999H47.5984V10.9999H21.0984L21.1984 11.5999C21.1984 12.8999 20.1984 13.8999 18.9984 13.8999ZM13.3984 11.6999C13.3984 12.0999 13.6984 12.2999 14.0984 12.2999H18.9984C19.3984 12.2999 19.6984 11.9999 19.6984 11.6999L19.2984 9.4999H46.0984V4.8999H15.4984C14.9984 4.8999 14.5984 5.2999 14.5984 5.7999V5.9999L13.3984 11.6999Z" fill="#00A0DF"/>
<path d="M16.4016 26.5C14.6016 26.5 13.1016 25.0001 13.1016 23.2001C13.1016 21.6001 15.4016 18.5 15.9016 18L16.4016 17.3L16.9016 18C17.4016 18.6 19.7016 21.7001 19.7016 23.2001C19.7016 25.0001 18.2016 26.5 16.4016 26.5ZM16.4016 19.5C15.5016 20.8 14.4016 22.5 14.4016 23.3C14.4016 24.4 15.3016 25.3 16.4016 25.3C17.5016 25.3 18.4016 24.4 18.4016 23.3C18.4016 22.5 17.4016 20.8 16.4016 19.5Z" fill="#00A0DF"/>
<path d="M20.6016 34.3C19.5016 34.3 18.6016 33.4 18.6016 32.3C18.6016 31.4 19.6016 30 20.1016 29.5L20.6016 28.8L21.1016 29.5C21.5016 30.1 22.6016 31.5 22.6016 32.3C22.6016 33.4 21.7016 34.3 20.6016 34.3ZM20.6016 31C20.2016 31.6 19.9016 32.1 19.9016 32.3C19.9016 32.7 20.2016 33 20.6016 33C21.0016 33 21.3016 32.7 21.3016 32.3C21.3016 32.1 21.0016 31.6 20.6016 31Z" fill="#00A0DF"/>
<path d="M39.2 21.6H33.6C32.7 21.6 32 20.9 32 20V9.5H40.8V20.1C40.7 20.9 40 21.6 39.2 21.6ZM33.5 11V20H39.2V11H33.5Z" fill="#00A0DF"/>
</g>
<defs>
<clipPath id="clip0">
<rect width="47.7" height="83.8" fill="white"/>
</clipPath>
</defs>
</svg>
