<svg width="63" height="81" viewBox="0 0 63 81" fill="none" xmlns="http://www.w3.org/2000/svg">
<g clip-path="url(#clip0)">
<path d="M8.9 11.4V14.6C8.9 15.9 7.9 16.8 6.2 18.4C3.6 20.6 0 23.8 0 30.8V73.5C0 75.4 0.8 77.3 2.1 78.6C4.6 81.1 8.6 81.4 11.4 79.4L11.8 79.1L12.2 79.4C14.7 81.2 18.1 81.2 20.6 79.4L21 79.1L21.4 79.4C24.3 81.5 28.2 81.1 30.7 78.6C32.1 77.2 32.8 75.4 32.8 73.5V52.1C32.8 51.7 32.5 51.3 32 51.3C31.6 51.3 31.2 51.6 31.2 52.1V56.7H24C23.8 56.7 23.6 56.8 23.5 56.9C21.5 58.6 19 59.6 16.4 59.6C13.8 59.6 11.2 58.6 9.3 56.9C9.2 56.8 9 56.7 8.8 56.7H1.6V36.3H8.8C9 36.3 9.2 36.2 9.3 36.1C11.3 34.4 13.8 33.4 16.4 33.4C19 33.4 21.6 34.4 23.5 36.1C23.6 36.2 23.8 36.3 24 36.3H31.2V39.4C31.2 39.6 31.3 39.8 31.4 39.9C31.5 40 31.7 40.1 31.9 40.1C32.3 40.1 32.7 39.8 32.7 39.3V30.6C32.7 23.5 29.1 20.4 26.5 18.1C24.8 16.6 23.8 15.6 23.8 14.3V11.1H24.6C24.8 11.1 25 11 25.1 10.9C25.2 10.8 25.3 10.6 25.3 10.4V4.3C25.3 3.1 24.8 2 24 1.2C23.4 0.5 22.2 0 21 0H11.8C10.6 0 9.5 0.5 8.7 1.3C7.9 2.1 7.4 3.3 7.4 4.4V10.5C7.4 10.7 7.5 10.9 7.6 11C7.7 11.1 7.9 11.2 8.1 11.2L8.9 11.4ZM3.2 77.6C2.1 76.5 1.5 75.1 1.5 73.6V58.4H8.4L8.6 58.5C10.8 60.3 13.5 61.2 16.4 61.2C19.2 61.2 22 60.2 24.2 58.4L24.4 58.3H31.3V73.5C31.3 75 30.7 76.5 29.6 77.5C27.8 79.3 24.9 79.7 22.6 78.4L22 78.1L22.4 77.6C23.2 76.4 23.6 75 23.6 73.6C23.6 73.2 23.3 72.8 22.8 72.8C22.6 72.8 22.4 72.9 22.3 73C22.2 73.1 22.1 73.3 22.1 73.5C22.1 75 21.5 76.5 20.4 77.5C18.2 79.7 14.6 79.7 12.3 77.5C11.2 76.4 10.6 75 10.6 73.5C10.6 73.3 10.5 73.1 10.4 73C10.3 72.9 10.1 72.8 9.9 72.8C9.5 72.8 9.1 73.1 9.1 73.6C9.1 75 9.5 76.4 10.3 77.6L10.7 78.1L10.1 78.4C7.9 79.8 5.1 79.4 3.2 77.6ZM1.5 34.8V30.8C1.5 24.6 4.4 21.9 7 19.6L7.2 19.5C8.9 18 10.4 16.6 10.4 14.6V11.4H22.4V14.6C22.4 16.7 23.9 18 25.6 19.5C28.3 21.8 31.3 24.5 31.3 30.9V34.9H24.4L24.2 34.8C22 33 19.3 32.1 16.4 32.1C13.6 32.1 10.8 33.1 8.6 34.9L8.4 35L1.5 34.8ZM8.9 9.8V4.4C8.9 3.6 9.2 2.9 9.7 2.3C10.2 1.7 11 1.4 11.8 1.4H21C21.8 1.4 22.5 1.7 23.1 2.2C23.6 2.7 24 3.5 24 4.3V9.7L8.9 9.8Z" fill="#00A0DF"/>
<path d="M23.6008 42.2C23.5008 42.1 23.3008 42 23.1008 42H10.1008C9.70078 42 9.30078 42.3 9.30078 42.8C9.30078 43 9.40078 43.2 9.50078 43.3C9.60078 43.4 9.80078 43.5 10.0008 43.5H23.0008C23.4008 43.5 23.8008 43.2 23.8008 42.7C23.8008 42.5 23.7008 42.3 23.6008 42.2Z" fill="#00A0DF"/>
<path d="M22.9992 48.7H9.99922C9.59922 48.7 9.19922 49 9.19922 49.5C9.19922 49.7 9.29922 49.9 9.39922 50C9.49922 50.1 9.69922 50.2 9.89922 50.2H22.8992C23.2992 50.2 23.6992 49.9 23.6992 49.4C23.7992 49 23.3992 48.7 22.9992 48.7Z" fill="#00A0DF"/>
<path d="M32.4992 45.2C32.3992 45 32.1992 45 31.9992 45C31.5992 45 31.1992 45.3 31.1992 45.8C31.1992 46 31.2992 46.2 31.3992 46.4C31.4992 46.5 31.6992 46.6 31.8992 46.6C32.0992 46.6 32.2992 46.5 32.3992 46.4C32.4992 46.3 32.5992 46.1 32.5992 45.9C32.6992 45.5 32.6992 45.3 32.4992 45.2Z" fill="#00A0DF"/>
<path d="M45.2006 44.3C45.0006 44.3 44.9006 44.3 44.7006 44.2C44.4006 43.9 44.3006 43.5 44.5006 43.1C44.9006 42.6 53.0006 31.2 42.6006 19.6C42.3006 19.3 42.3006 18.8 42.7006 18.5C43.0006 18.2 43.5006 18.2 43.8006 18.6C55.1006 31.2 45.9006 43.9 45.8006 44C45.6006 44.1 45.4006 44.3 45.2006 44.3Z" fill="#00A0DF"/>
<path d="M43.8006 29.0001C42.9006 29.0001 42.0006 28.9001 41.1006 28.5001C38.9006 27.6001 37.3006 25.5001 36.3006 22.4001C34.9006 18.0001 35.6006 8.90006 35.7006 8.60006C35.7006 8.40006 35.8006 8.20006 36.0006 8.00006C36.2006 7.90006 36.4006 7.80006 36.7006 7.90006C37.1006 8.00006 47.1006 11.0001 50.3006 17.7001C51.6006 20.3001 51.7006 23.1001 50.6006 25.9001C50.4006 26.3001 50.0006 26.5001 49.6006 26.3001C49.2006 26.1001 49.0006 25.7001 49.2006 25.3001C50.1006 22.8001 50.1006 20.5001 49.0006 18.3001C46.6006 13.4001 39.7006 10.5001 37.2006 9.60006C37.1006 12.1001 36.8006 18.6001 37.8006 21.9001C38.6006 24.6001 39.9006 26.3001 41.7006 27.0001C44.4006 28.1001 47.2006 26.6001 47.2006 26.6001C47.6006 26.4001 48.0006 26.5001 48.2006 26.9001C48.4006 27.3001 48.3006 27.7001 47.9006 27.9001C47.8006 28.1001 46.0006 29.0001 43.8006 29.0001Z" fill="#00A0DF"/>
<path d="M54.9992 40.6001C53.8992 40.6001 52.7992 40.4001 51.4992 40.0001C51.0992 39.9001 50.8992 39.5001 50.9992 39.0001C51.0992 38.6001 51.5992 38.4001 51.9992 38.5001C54.7992 39.3001 56.9992 39.1001 58.4992 37.9001C61.0992 35.7001 61.1992 31.0001 61.1992 29.1001C55.7992 29.7001 53.6992 31.2001 52.8992 32.3001C51.9992 33.6001 52.3992 34.9001 52.4992 35.4001C52.4992 35.5001 52.5992 35.6001 52.5992 35.8001C52.5992 36.2001 52.2992 36.6001 51.7992 36.6001C51.3992 36.6001 51.0992 36.3001 50.9992 36.0001C50.4992 34.3001 50.6992 32.8001 51.4992 31.6001C52.9992 29.4001 56.3992 28.0001 61.6992 27.6001C62.0992 27.6001 62.4992 27.9001 62.4992 28.3001C62.4992 28.6001 63.1992 35.9001 59.2992 39.2001C58.1992 40.1001 56.7992 40.6001 54.9992 40.6001Z" fill="#00A0DF"/>
<path d="M46.6983 41.6001C46.2983 41.6001 45.9983 41.3001 45.8983 40.9001C45.7983 40.5001 46.0983 40.1001 46.4983 40.0001C46.5983 40.0001 51.2983 39.2001 55.9983 33.2001C56.2983 32.9001 56.6983 32.8001 57.0983 33.1001C57.4983 33.4001 57.4983 33.8001 57.1983 34.2001C52.1983 40.7001 46.9983 41.5001 46.7983 41.6001C46.7983 41.6001 46.7983 41.6001 46.6983 41.6001Z" fill="#00A0DF"/>
</g>
<defs>
<clipPath id="clip0">
<rect width="62.7" height="80.8" fill="white"/>
</clipPath>
</defs>
</svg>
