<svg width="106" height="54" viewBox="0 0 106 54" fill="none" xmlns="http://www.w3.org/2000/svg">
<path fill-rule="evenodd" clip-rule="evenodd" d="M57.2528 5.13847L57.3569 5.06903L57.3917 5.03431C57.5305 4.93015 57.6347 4.82599 57.6694 4.65239C57.8083 4.23575 57.5653 3.81911 57.1833 3.68023C56.9056 3.57607 56.6278 3.68023 56.4195 3.85383L56.3501 3.92327L56.3153 3.95799C56.1417 4.16631 55.6904 4.82599 55.0654 6.63142C55.0654 6.5967 55.8293 5.93703 57.2528 5.13847Z" fill="#00A0DF"/>
<path fill-rule="evenodd" clip-rule="evenodd" d="M55.4475 3.33294L55.4822 3.2635L55.5169 3.05518C55.5516 2.60382 55.3086 2.15246 54.8225 2.01358C54.3017 1.83998 53.7462 2.11774 53.5726 2.63854C53.5031 2.84686 53.5031 3.05518 53.5726 3.2635L53.6073 3.33294C53.7115 3.64542 54.2323 5.03422 54.4059 6.00637C54.4059 6.04109 55.135 4.44398 55.4475 3.33294Z" fill="#00A0DF"/>
<path fill-rule="evenodd" clip-rule="evenodd" d="M52.8087 5.34687C52.4615 4.13167 52.0796 3.09008 51.6977 2.2568C51.281 1.28464 50.8297 0.729119 50.4477 0.416639C50.3783 0.347199 50.2741 0.27776 50.2047 0.24304C50.1353 0.20832 50.0311 0.13888 49.9617 0.13888C49.6839 0 49.4409 0 49.2673 0C49.1631 0 49.0242 0.0347199 48.8159 0.13888L48.7118 0.24304C48.434 0.451359 48.2951 0.798559 48.191 1.2152L48.1562 1.31936C48.0868 1.66656 48.0521 2.0832 48.0521 2.604C48.0173 3.40255 48.0521 4.23583 47.8438 4.89551C47.3924 6.52735 46.6633 6.24959 44.9967 6.52735C43.5732 6.73567 42.7746 7.56895 43.1218 8.95775C43.6426 10.9715 46.1425 12.2214 47.7049 12.6381C49.6839 13.1589 51.1074 13.0894 52.2185 12.2561L52.3226 12.1867C52.8087 11.7701 53.1212 11.0409 53.2601 10.0688V9.99934C53.5031 8.78415 53.3642 7.18703 52.8087 5.34687Z" fill="#00A0DF"/>
<path fill-rule="evenodd" clip-rule="evenodd" d="M58.8159 8.9578C58.9895 8.57588 59.302 8.15924 59.6145 7.7426C59.7881 7.49957 59.927 7.32597 60.0311 7.15237L60.0659 7.11765V7.08293C60.2047 6.83989 60.2395 6.63157 60.2047 6.42325L60.17 6.35381C60.1353 6.24965 60.0659 6.18021 60.0311 6.11077L59.9964 6.07605L59.8923 6.00661L59.8575 5.97189L59.7187 5.90245L59.6492 5.86773L59.5798 5.83301H59.4756H59.3715H59.2673C59.1631 5.83301 59.0937 5.86773 58.9895 5.86773H58.9548C58.8854 5.90245 58.8159 5.90245 58.7465 5.93717H58.7118C58.6076 5.97189 58.4687 6.04133 58.3299 6.07605C58.2257 6.11077 58.1215 6.18021 58.0174 6.21493C57.5313 6.45797 56.9758 6.80517 56.3855 7.25653C55.6217 7.77732 55.0662 8.33284 54.6843 8.85364L54.5454 9.06196L54.4412 9.23556C54.3718 9.33972 54.3371 9.40916 54.3023 9.51332C54.094 9.92996 54.0246 10.3119 54.0593 10.6244V10.6938V10.6591V10.7632C54.2676 11.5965 54.9273 12.152 56.0731 12.6381C56.9758 13.02 58.6423 13.3325 59.6492 12.5687C60.3436 12.0479 60.2395 11.3535 59.6492 10.7285C58.8854 10.0341 58.434 9.89524 58.8159 8.9578Z" fill="#00A0DF"/>
<path fill-rule="evenodd" clip-rule="evenodd" d="M76.488 21.6305C76.1061 20.7625 75.2381 20.1376 74.2312 20.0681H73.5021H72.4605C71.4536 20.1723 70.5856 20.7625 70.2037 21.6305L62.0098 40.8654H63.4333H63.6763C64.961 40.8654 66.2109 40.1362 67.565 39.3724L67.7386 39.2682C69.4398 38.3308 71.0022 37.3239 73.1201 37.3239H73.2243H73.3285C75.4464 37.3239 77.0088 38.2961 78.7101 39.2682C79.8905 39.9279 81.6613 40.8306 83.0848 40.8306H83.3278C83.5361 40.8306 84.7166 40.8306 84.7166 40.8306L76.488 21.6305ZM73.1896 33.227C71.5925 33.227 70.3426 33.8172 69.9606 33.9908L73.1896 25.3108L76.4185 33.9908C76.0366 33.8172 74.7867 33.227 73.1896 33.227Z" fill="#002856"/>
<path fill-rule="evenodd" clip-rule="evenodd" d="M35.1015 25.1025V31.8381C35.1015 34.9976 33.678 36.8031 30.7963 36.8031C27.9492 36.8031 26.5257 34.9976 26.5257 31.8381V25.1025C26.5257 21.6652 25.0327 20.1028 21.7344 20.1028H21.4219V31.6298C21.4219 37.8794 24.512 41.1778 30.831 41.2125C37.1153 41.1778 40.2401 37.8794 40.2401 31.6298V20.1028H39.9276C36.5945 20.1028 35.1363 21.6652 35.1015 25.1025Z" fill="#002856"/>
<path fill-rule="evenodd" clip-rule="evenodd" d="M55.2044 33.1576C55.4474 33.1229 56.2112 33.0187 57.114 32.7062C59.8221 31.8382 61.1415 29.7898 61.1415 27.0816V27.0122C61.1415 25.0331 60.5512 23.436 59.336 22.2555C57.8778 20.7626 55.8293 20.0334 52.774 20.0334H47.2882C45.2745 20.0334 43.0871 21.1792 43.0871 24.4429V36.4907V36.4213C43.0871 38.9558 42.6357 40.8307 42.6357 40.8307H43.2607C46.2466 40.7265 48.2257 39.8238 48.2604 35.588V35.4838V35.3102V24.3387H52.4615C54.8572 24.3387 56.246 25.4845 56.246 27.4288V27.4982C56.246 29.3384 54.996 30.3453 52.7045 30.3453C52.6004 30.3453 49.9964 30.38 49.788 30.6578C49.6839 30.8314 49.6144 30.9702 49.7186 31.4216L49.788 31.5952L49.8228 31.7341C50.3088 33.3659 51.3852 35.7616 52.392 37.6017C53.5725 39.7544 55.5863 40.8654 58.2944 40.8654H61.2109C59.5096 40.0669 55.4127 33.5048 55.2044 33.1576Z" fill="#002856"/>
<path fill-rule="evenodd" clip-rule="evenodd" d="M106 20.1028H105.201H104.75C102.042 20.2764 100.722 21.4569 100.41 23.9914V32.5672L91.3133 20.1028H90.4453C88.5009 20.1028 86.2441 21.2485 86.2441 24.4428V40.8306H86.7997C89.4037 40.6917 91.1744 39.8584 91.348 36.2128V27.8453L99.1252 38.5738C100.202 39.789 101.139 40.8306 103.674 40.8306H105.514V24.3039C105.548 21.8735 106 20.1028 106 20.1028Z" fill="#002856"/>
<path fill-rule="evenodd" clip-rule="evenodd" d="M12.395 24.7553H14.9296C18.0197 24.7553 19.6168 23.1234 19.6168 19.9639V19.6167L19.5473 19.6514C19.5473 19.6514 18.7835 20.1028 13.8185 20.1028H6.28431H6.24959H4.68719C1.5624 20.1028 0 21.7346 0 24.8941V25.2413L0.0694399 25.2066C0.0694399 25.2066 0.763839 24.79 4.99967 24.7553H5.03439H7.25647V24.9289V36.5253V36.4559C7.25647 38.9557 6.80511 40.8306 6.80511 40.8306H7.43007C10.3813 40.7264 12.3603 39.8237 12.395 35.6573V35.5532V35.3796V24.7553Z" fill="#002856"/>
<path d="M40.0671 53.5381L38.6783 49.4064L37.2895 53.5381H36.4215L34.373 47.1843H35.623L36.9076 51.1771L38.227 47.1843H39.1644L40.4838 51.1771L41.7337 47.1843H42.9836L40.9351 53.5381H40.0671Z" fill="#002856"/>
<path d="M48.5735 51.9757H45.6917L44.9279 53.5381H43.5391L46.6639 47.1843H47.6013L50.7261 53.5381H49.3373L48.5735 51.9757ZM46.2819 50.7605H47.9832L47.1499 49.0592L46.2819 50.7605Z" fill="#002856"/>
<path d="M54.3366 53.5381H53.0866V48.3995H50.6562V47.1843H56.8017V48.3995H54.3366V53.5381Z" fill="#002856"/>
<path d="M58.2256 47.1843H63.2947V48.3995H59.4755V49.5453H61.8017V50.7605H59.4755V52.3229H63.5377V53.5381H58.2256V47.1843Z" fill="#002856"/>
<path d="M68.7112 51.073H66.9057V53.5381H65.6211V47.1843H69.2667C69.6833 47.1843 70.3083 47.2538 70.7944 47.7398C71.211 48.1565 71.3152 48.7467 71.3152 49.1634C71.3152 49.5106 71.2457 49.9272 70.968 50.3091C70.7596 50.5869 70.4472 50.7952 70.0652 50.9341L71.5582 53.5381H70.1347L68.7112 51.073ZM69.8222 49.6494C69.9611 49.5106 70.0305 49.3022 70.0305 49.0939C70.0305 48.7814 69.8916 48.6078 69.7528 48.5384C69.5792 48.4342 69.3361 48.4342 69.0931 48.4342H66.9057V49.8578H69.1972C69.4056 49.823 69.6486 49.823 69.8222 49.6494Z" fill="#002856"/>
</svg>
