<svg width="106" height="54" viewBox="0 0 106 54" fill="none" xmlns="http://www.w3.org/2000/svg">
<path fill-rule="evenodd" clip-rule="evenodd" d="M57.2532 5.13852L57.3574 5.06908L57.3921 5.03436C57.531 4.9302 57.6351 4.82604 57.6699 4.65244C57.8087 4.2358 57.5657 3.81916 57.1838 3.68028C56.906 3.57612 56.6283 3.68028 56.4199 3.85388L56.3505 3.92332L56.3158 3.95804C56.1422 4.16636 55.6908 4.82604 55.0659 6.63148C55.0659 6.59676 55.8297 5.93708 57.2532 5.13852Z" fill="white"/>
<path fill-rule="evenodd" clip-rule="evenodd" d="M55.4478 3.33305L55.4826 3.26361L55.5173 3.05529C55.552 2.60393 55.3089 2.15257 54.8229 2.01369C54.3021 1.84009 53.7466 2.11785 53.573 2.63865C53.5035 2.84697 53.5035 3.05529 53.573 3.26361L53.6077 3.33305C53.7118 3.64553 54.2326 5.03432 54.4062 6.00648C54.4062 6.0412 55.1353 4.44408 55.4478 3.33305Z" fill="white"/>
<path fill-rule="evenodd" clip-rule="evenodd" d="M52.8091 5.34687C52.4619 4.13167 52.08 3.09008 51.6981 2.2568C51.2815 1.28464 50.8301 0.729119 50.4482 0.416639C50.3787 0.347199 50.2746 0.27776 50.2051 0.24304C50.1357 0.20832 50.0315 0.13888 49.9621 0.13888C49.6843 0 49.4413 0 49.2677 0C49.1635 0 49.0247 0.0347199 48.8163 0.13888L48.7122 0.24304C48.4344 0.451359 48.2955 0.798559 48.1914 1.2152L48.1567 1.31936C48.0872 1.66656 48.0525 2.0832 48.0525 2.604C48.0178 3.40255 48.0525 4.23583 47.8442 4.89551C47.3928 6.52735 46.6637 6.24959 44.9971 6.52735C43.5736 6.73567 42.7751 7.56895 43.1223 8.95775C43.6431 10.9715 46.1429 12.2214 47.7053 12.6381C49.6843 13.1589 51.1079 13.0894 52.2189 12.2561L52.323 12.1867C52.8091 11.7701 53.1216 11.0409 53.2605 10.0688V9.99934C53.5035 8.78415 53.3647 7.18703 52.8091 5.34687Z" fill="white"/>
<path fill-rule="evenodd" clip-rule="evenodd" d="M58.8156 8.9578C58.9892 8.57588 59.3017 8.15924 59.6142 7.7426C59.7878 7.49956 59.9267 7.32596 60.0308 7.15236L60.0656 7.11764V7.08292C60.2044 6.83988 60.2392 6.63156 60.2044 6.42324L60.1697 6.3538C60.135 6.24964 60.0656 6.1802 60.0308 6.11076L59.9961 6.07604L59.892 6.0066L59.8572 5.97188L59.7184 5.90244L59.6489 5.86772L59.5795 5.833H59.4753H59.3712H59.267C59.1628 5.833 59.0934 5.86772 58.9892 5.86772H58.9545C58.8851 5.90244 58.8156 5.90244 58.7462 5.93716H58.7115C58.6073 5.97188 58.4684 6.04132 58.3296 6.07604C58.2254 6.11076 58.1212 6.1802 58.0171 6.21492C57.531 6.45796 56.9755 6.80516 56.3852 7.25652C55.6214 7.77732 55.0659 8.33284 54.684 8.85364L54.5451 9.06196L54.4409 9.23556C54.3715 9.33972 54.3368 9.40916 54.302 9.51332C54.0937 9.92996 54.0243 10.3119 54.059 10.6244V10.6938V10.6591V10.7632C54.2673 11.5965 54.927 12.152 56.0728 12.6381C56.9755 13.02 58.642 13.3325 59.6489 12.5687C60.3433 12.0479 60.2392 11.3535 59.6489 10.7285C58.8851 10.0341 58.4337 9.89524 58.8156 8.9578Z" fill="white"/>
<path fill-rule="evenodd" clip-rule="evenodd" d="M76.488 21.6307C76.1061 20.7627 75.2381 20.1378 74.2312 20.0683H73.5021H72.4605C71.4536 20.1725 70.5856 20.7627 70.2037 21.6307L62.0098 40.8656H63.4333H63.6763C64.961 40.8656 66.2109 40.1365 67.565 39.3726L67.7386 39.2685C69.4398 38.331 71.0022 37.3241 73.1201 37.3241H73.2243H73.3285C75.4464 37.3241 77.0088 38.2963 78.7101 39.2685C79.8905 39.9281 81.6613 40.8309 83.0848 40.8309H83.3278C83.5361 40.8309 84.7166 40.8309 84.7166 40.8309L76.488 21.6307ZM73.1896 33.2272C71.5925 33.2272 70.3426 33.8174 69.9606 33.991L73.1896 25.311L76.4185 33.991C76.0366 33.8174 74.7867 33.2272 73.1896 33.2272Z" fill="white"/>
<path fill-rule="evenodd" clip-rule="evenodd" d="M35.1018 25.1025V31.8382C35.1018 34.9977 33.6783 36.8031 30.7966 36.8031C27.9495 36.8031 26.526 34.9977 26.526 31.8382V25.1025C26.526 21.6652 25.0331 20.1028 21.7347 20.1028H21.4222V31.6298C21.4222 37.8794 24.5123 41.1778 30.8313 41.2125C37.1156 41.1778 40.2404 37.8794 40.2404 31.6298V20.1028H39.9279C36.5948 20.1028 35.1366 21.6652 35.1018 25.1025Z" fill="white"/>
<path fill-rule="evenodd" clip-rule="evenodd" d="M55.2048 33.1575C55.4478 33.1228 56.2117 33.0186 57.1144 32.7061C59.8225 31.8381 61.1419 29.7897 61.1419 27.0815V27.0121C61.1419 25.033 60.5517 23.4359 59.3365 22.2554C57.8782 20.7625 55.8297 20.0334 52.7744 20.0334H47.2886C45.2749 20.0334 43.0875 21.1791 43.0875 24.4428V36.4906V36.4212C43.0875 38.9557 42.6362 40.8306 42.6362 40.8306H43.2611C46.247 40.7264 48.2261 39.8237 48.2608 35.5879V35.4837V35.3101V24.3386H52.4619C54.8576 24.3386 56.2464 25.4844 56.2464 27.4287V27.4981C56.2464 29.3383 54.9965 30.3452 52.705 30.3452C52.6008 30.3452 49.9968 30.3799 49.7885 30.6577C49.6843 30.8313 49.6149 30.9701 49.719 31.4215L49.7885 31.5951L49.8232 31.734C50.3093 33.3658 51.3856 35.7615 52.3925 37.6017C53.5729 39.7543 55.5867 40.8653 58.2949 40.8653H61.2113C59.5101 40.0668 55.4131 33.5047 55.2048 33.1575Z" fill="white"/>
<path fill-rule="evenodd" clip-rule="evenodd" d="M106 20.1028H105.201H104.75C102.042 20.2764 100.723 21.4569 100.41 23.9914V32.5673L91.3135 20.1028H90.4455C88.5012 20.1028 86.2444 21.2486 86.2444 24.4428V40.8306H86.7999C89.4039 40.6917 91.1746 39.8585 91.3482 36.2129V27.8454L99.1255 38.5738C100.202 39.789 101.139 40.8306 103.674 40.8306H105.514V24.3039C105.549 21.8735 106 20.1028 106 20.1028Z" fill="white"/>
<path fill-rule="evenodd" clip-rule="evenodd" d="M12.395 24.7554H14.9296C18.0197 24.7554 19.6168 23.1235 19.6168 19.964V19.6168L19.5473 19.6516C19.5473 19.6516 18.7835 20.1029 13.8185 20.1029H6.28431H6.24959H4.68719C1.5624 20.1029 0 21.7348 0 24.8943V25.2415L0.0694399 25.2067C0.0694399 25.2067 0.763839 24.7901 4.99967 24.7554H5.03439H7.25647V24.929V36.5254V36.456C7.25647 38.9558 6.80511 40.8307 6.80511 40.8307H7.43007C10.3813 40.7266 12.3603 39.8238 12.395 35.6574V35.5533V35.3797V24.7554Z" fill="white"/>
<path d="M40.0668 53.5382L38.678 49.4066L37.2892 53.5382H36.4212L34.3727 47.1845H35.6227L36.9073 51.1773L38.2267 47.1845H39.1641L40.4835 51.1773L41.7334 47.1845H42.9833L40.9348 53.5382H40.0668Z" fill="white"/>
<path d="M48.5731 51.9759H45.6914L44.9276 53.5382H43.5388L46.6635 47.1845H47.601L50.7258 53.5382H49.337L48.5731 51.9759ZM46.2816 50.7607H47.9829L47.1496 49.0594L46.2816 50.7607Z" fill="white"/>
<path d="M54.3367 53.5382H53.0868V48.3997H50.6564V47.1845H56.8019V48.3997H54.3367V53.5382Z" fill="white"/>
<path d="M58.2253 47.1845H63.2945V48.3997H59.4753V49.5455H61.8015V50.7607H59.4753V52.3231H63.5375V53.5382H58.2253V47.1845Z" fill="white"/>
<path d="M68.7108 51.0731H66.9054V53.5382H65.6207V47.1845H69.2663C69.683 47.1845 70.3079 47.2539 70.794 47.74C71.2106 48.1567 71.3148 48.7469 71.3148 49.1635C71.3148 49.5107 71.2454 49.9274 70.9676 50.3093C70.7593 50.5871 70.4468 50.7954 70.0649 50.9343L71.5578 53.5382H70.1343L68.7108 51.0731ZM69.8218 49.6496C69.9607 49.5107 70.0302 49.3024 70.0302 49.0941C70.0302 48.7816 69.8913 48.608 69.7524 48.5386C69.5788 48.4344 69.3358 48.4344 69.0927 48.4344H66.9054V49.8579H69.1969C69.4052 49.8232 69.6482 49.8232 69.8218 49.6496Z" fill="white"/>
</svg>
