<?xml version="1.0" encoding="utf-8"?>
<!-- Generator: Adobe Illustrator 21.1.0, SVG Export Plug-In . SVG Version: 6.00 Build 0)  -->
<svg version="1.1" id="Слой_1" xmlns="http://www.w3.org/2000/svg" xmlns:xlink="http://www.w3.org/1999/xlink" x="0px" y="0px"
	 viewBox="0 0 212 206" style="enable-background:new 0 0 212 206;" xml:space="preserve">
<style type="text/css">
	.st0{fill:none;stroke:#00A0DF;stroke-width:1.25;stroke-miterlimit:10;}
</style>
<path class="st0" d="M209.8,103c0,11-8.3,20.5-11.4,30.3c-3.2,9.9-2.4,22.8-8.4,31.3s-18.4,11.5-26.9,17.7c-8.5,6.3-14.9,17-25,20.4
	C128,206,116.8,201,106,201s-22.3,4.8-32.1,1.7c-10.1-3.3-16.5-14.2-25-20.4s-20.7-9-26.8-17.7s-5.2-21.1-8.5-31.3
	c-3.2-9.9-11.4-19.4-11.4-30.3c0-11,8.2-20.3,11.4-30.3S16,49.9,22,41.4s18.4-11.5,26.9-17.7c8.5-6.3,14.9-17.1,25-20.4
	C83.7,0,95.2,4.9,106,4.9s22.4-4.9,32.1-1.7c9.7,3.2,16.5,14.3,25,20.4s20.7,9.1,26.9,17.7s5.1,21.1,8.4,31.3
	C201.7,82.9,209.8,92,209.8,103z"/>
</svg>
