<svg width="242" height="450" viewBox="0 0 242 450" fill="none" xmlns="http://www.w3.org/2000/svg">
<path d="M236.36 236.36L28.36 444.36C26.8726 445.86 25.103 447.05 23.1532 447.862C21.2035 448.675 19.1122 449.093 17 449.093C14.8878 449.093 12.7965 448.675 10.8468 447.862C8.89702 447.05 7.12741 445.86 5.64 444.36C4.14034 442.873 2.95004 441.103 2.13774 439.153C1.32544 437.204 0.907227 435.112 0.907227 433C0.907227 430.888 1.32544 428.797 2.13774 426.847C2.95004 424.897 4.14034 423.127 5.64 421.64L202.44 225L5.64 28.36C2.62714 25.3472 0.93454 21.2609 0.93454 17C0.93454 14.8903 1.35007 12.8012 2.15744 10.852C2.96481 8.9029 4.14818 7.13185 5.64 5.64004C7.13182 4.14822 8.90285 2.96485 10.852 2.15748C12.8012 1.35012 14.8903 0.93457 17 0.93457C21.2608 0.93457 25.3471 2.62718 28.36 5.64004L236.36 213.64C237.86 215.127 239.05 216.897 239.862 218.847C240.675 220.797 241.093 222.888 241.093 225C241.093 227.112 240.675 229.204 239.862 231.153C239.05 233.103 237.86 234.873 236.36 236.36V236.36Z" fill="#072A57"/>
</svg>
