<svg width="40" height="40" viewBox="0 0 40 40" fill="none" xmlns="http://www.w3.org/2000/svg">
<path d="M16.5692 34.2314C13.8545 34.7973 11.7912 34.4396 9.7169 33.2314C9.43073 33.0647 8.61102 33.3952 7.99604 33.1208C7.28329 32.8027 6.90238 32.2567 6.70925 31.7835C6.38557 30.9904 6.95527 30.5552 6.733 30.1407C4.39602 25.7833 6.03175 19.2352 10.9658 14.4716C15.7234 9.87832 22.0314 8.40814 26.307 10.5401C26.6791 10.7256 27.9812 10.3695 28.3201 10.6099C29.0798 10.7907 29.3871 11.2984 29.6175 11.9537C29.8098 12.2247 29.6013 13.5909 29.7579 13.8828C31.3244 16.8036 31.1059 20.7087 29.3055 24.4009" stroke="white"/>
<path d="M15.2188 15.7292C16.1576 14.6957 19.1462 12.6848 23.5894 12.9087" stroke="white" stroke-linecap="round"/>
<path d="M34.5463 29.4501L34.5249 29.517L34.5249 29.5181C34.5179 29.5299 34.5084 29.545 34.496 29.5637C34.4434 29.6424 34.369 29.7385 34.2794 29.8522C34.2708 29.8631 34.262 29.8742 34.2531 29.8855C34.1757 29.9835 34.0889 30.0935 34.0186 30.1929C33.979 30.249 33.9375 30.3116 33.9025 30.3754C33.8725 30.4303 33.8241 30.5265 33.8062 30.6419C33.3295 33.7014 29.9741 36.5136 25.4235 37.0669C20.8728 37.6203 16.9412 35.6942 15.7452 32.838C15.6644 32.645 15.5047 32.5262 15.429 32.472C15.3619 32.424 15.2778 32.3721 15.2088 32.3295C15.188 32.3167 15.1687 32.3047 15.1515 32.294C14.9634 32.1759 14.8663 32.0935 14.8233 32.0157C14.6408 31.685 14.6511 31.3662 14.7169 31.1183C14.7506 30.9914 14.8085 30.9335 14.9194 30.85C14.9272 30.8441 14.9373 30.8366 14.9493 30.8279C15.0045 30.7875 15.0975 30.7195 15.168 30.6509C15.2733 30.5484 15.3872 30.3954 15.4215 30.1755C15.8981 27.1159 19.2536 24.3038 23.8042 23.7504C28.1875 23.2174 32.0069 24.9875 33.3441 27.677C33.4369 27.8636 33.6124 27.996 33.7081 28.0653C33.8121 28.1407 33.9348 28.2175 34.0405 28.2838C34.0537 28.292 34.0666 28.3001 34.0792 28.308C34.2032 28.3859 34.3011 28.4492 34.3722 28.505C34.3882 28.5176 34.4004 28.5279 34.4093 28.5359L34.4203 28.5706L34.4821 28.6454C34.5892 28.7751 34.6221 28.8814 34.6289 28.9828C34.6368 29.0996 34.6121 29.2439 34.5463 29.4501Z" stroke="white"/>
<path d="M25.4893 26.7578C26.39 26.5878 28.7511 26.7167 30.99 28.5918" stroke="white" stroke-linecap="round"/>
<path d="M18.5285 9.86894C17.2092 9.53388 14.9962 6.76726 15.3356 2.992C18.3985 3.20156 24.4668 4.67208 24.3789 9.66009" stroke="white" stroke-linecap="round"/>
</svg>
