<svg width="40" height="40" viewBox="0 0 40 40" fill="none" xmlns="http://www.w3.org/2000/svg">
<path d="M35.3044 18.4884C35.3044 25.9188 29.2478 31.9469 21.7709 31.9469C14.2327 31.9469 5.98535 26.1074 5.98535 16.6873C5.98535 12.4649 7.48454 9.46285 9.8749 7.50589C12.2802 5.53666 15.6451 4.57965 19.4439 4.57965C23.1838 4.57965 27.1627 6.20091 30.2078 8.77499C33.254 11.3501 35.3044 14.8237 35.3044 18.4884Z" stroke="white"/>
<path d="M8.29191 16.6829L17.3306 18.3263L10.4155 23.0546C9.60921 22.3687 8.24974 20.3987 8.29191 16.6829Z" stroke="white"/>
<path d="M11.5706 8.83761L17.4243 15.9612L8.53909 13.9935C8.79486 13.2869 9.18619 12.358 9.6822 11.439C10.2249 10.4334 10.8703 9.48255 11.5706 8.83761ZM20.4139 6.55894L19.7882 14.8801L13.7527 7.52435C15.1422 6.81144 17.7871 5.94659 20.4139 6.55894ZM29.266 10.9623L22.2462 15.1995L23.3078 6.89429C24.2035 7.28435 25.3675 7.86265 26.4636 8.55169C27.6556 9.30098 28.6975 10.1388 29.266 10.9623ZM30.9234 12.9669C31.8825 14.0041 33.3659 16.3371 33.371 19.2962L23.9538 17.2175L30.9234 12.9669ZM23.6132 19.8597L33.1719 21.8589C32.8499 22.6324 32.3503 23.63 31.713 24.5604C30.9891 25.6172 30.1314 26.5224 29.2078 26.9629L23.6132 19.8597ZM21.475 21.2441L26.8997 28.3948C25.7592 28.7852 23.5667 29.3038 20.7405 29.3229L21.475 21.2441ZM11.9164 24.9704L18.9688 20.0782L18.5268 29.1069C17.6338 28.7474 16.4556 28.2055 15.2885 27.535C13.9902 26.7892 12.7477 25.9079 11.9164 24.9704Z" stroke="white"/>
<path d="M7.7489 9.82965C4.67171 12.4563 2.34448 22.0556 6.24872 28.3297C9.91051 34.2141 15.5569 36.9305 22.6863 35.5797C29.8156 34.2288 33.8982 29.2843 34.8738 21.7047" stroke="white"/>
</svg>
