<svg width="40" height="40" viewBox="0 0 40 40" fill="none" xmlns="http://www.w3.org/2000/svg">
<path d="M4.50098 19.2406C4.50096 25.2205 7.93041 26.1902 10.3256 26.2628C10.3256 29.6378 16.5026 30.7707 21.757 29.3111C29.5957 27.1337 33.0795 20.0571 32.9707 12.4362C32.8836 6.3394 26.257 6.26682 22.9546 6.99263C17.1844 0.242634 4.50101 11.0752 4.50098 19.2406Z" stroke="white"/>
<path d="M4.55534 20.0027C4.41018 23.6317 6.06063 32.0765 15.1187 34.4281C26.4412 37.3676 32.8523 30.4372 34.4981 24.3031C35.8327 19.3287 36.6723 11.8918 31.3376 8.40796" stroke="white"/>
<path d="M12.1761 19.6218C12.611 22.0606 12.1757 23.8133 12.1757 23.8133C12.1757 23.8133 13.156 23.3234 14.4624 22.8879C16.0955 22.3435 17.9195 23.8133 21.6479 21.5815C25.3113 19.3885 28.1261 12.4906 24.3429 9.22453C21.5739 6.83405 18.4916 7.9725 15.9875 9.8233C13.4835 11.6741 11.3491 14.9841 12.1761 19.6218Z" stroke="white"/>
<path d="M15.6602 20.4382C16.0412 20.4019 16.9666 20.1987 17.6198 19.6761" stroke="white" stroke-linecap="round"/>
<path d="M22.6125 13.2069C22.5688 12.8266 22.3475 11.9054 21.8123 11.2625" stroke="white" stroke-linecap="round"/>
<path d="M16.2143 15.3293C15.9314 15.5872 15.3134 16.3053 15.1048 17.1154" stroke="white" stroke-linecap="round"/>
<path d="M19.7112 16.9181C20.0738 17.0406 21.0015 17.2331 21.8112 17.0229" stroke="white" stroke-linecap="round"/>
<path d="M18.7068 13.7331C18.6055 13.364 18.2461 12.4873 17.6189 11.9337" stroke="white" stroke-linecap="round"/>
</svg>
