<?xml version="1.0" encoding="utf-8"?>
<!-- Generator: Adobe Illustrator 21.1.0, SVG Export Plug-In . SVG Version: 6.00 Build 0)  -->
<svg version="1.1" id="Слой_1" xmlns="http://www.w3.org/2000/svg" xmlns:xlink="http://www.w3.org/1999/xlink" x="0px" y="0px"
	 viewBox="0 0 646 300" style="enable-background:new 0 0 646 300;" xml:space="preserve">
<style type="text/css">
	.st0{fill:#DFF1FD;stroke:#00A0DF;stroke-miterlimit:10;}
</style>
<path class="st0" d="M312.3,11.2c1.9-0.1,4.7,0.4,8.2,3.2c1.6,2,4.8,5.5,10.1,7.6c6.8,2.8,13,1.7,15.8,1.2
	c10.3-1.9,10.7-7.5,17.9-8.4c10.5-1.3,13.4,10.3,25.5,11.4c11.2,1,12.5-8.5,26-10.3c16-2,20.3,10.4,36.1,8.3
	c13.2-1.8,14.1-11,25.4-10.3c11.2,0.8,14.7,10.2,24.8,8.7c7.5-1.1,7-6.5,14.6-7.9c11.4-2.1,16.2,9.1,29,7.7c7-0.8,7.1-4.7,14.2-4.8
	c9.5-0.2,11.3,6.6,20.2,7c10.5,0.5,12.6-8.9,22.2-8.2c9.2,0.7,10.9,9.8,20.5,11.8c5.1,1.1,12.7,0.2,23.3-8.3
	c-0.1,93.3-0.1,186.6-0.2,279.9C430.5,299.9,215.3,299.9,0,300V16.7c0.4-0.8,0.6-1.3,0.6-1.3C5,10.9,11.6,6,19.7,5
	c6.9-0.8,12.9,1.3,14.8,2c4.1,1.5,5.2,2.8,8.6,4.8c0,0,1.4,0.9,4.1,2.2c4.8,2.4,13.8,4.9,17.9,5.5C82.6,21.9,96.3,0,108,5.2
	c6.5,2.9,5.6,11.1,14.7,14.2c5.4,1.9,10.6,0.6,12.2,0.2C145,16.9,146.4,9,152.7,9.2c6.3,0.2,6.5,8.3,13.5,9.8
	c10,2.1,16.8-13,25.9-10.6c5.6,1.5,4.2,7.5,12.3,11.6c9.3,4.7,19.4,0.8,20,0.6c3.8-1.5,4.4-3,8.7-5.9c4.3-3,12.7-8.7,20.6-8.3
	c13.1,0.6,17.1,17.8,32.8,18c1,0,2.6,0,4.8-0.4C302.1,21.6,304.8,11.6,312.3,11.2z"/>
</svg>
